<?xml version="1.0" standalone="no"?>
<!DOCTYPE svg PUBLIC "-//W3C//DTD SVG 20010904//EN"
 "http://www.w3.org/TR/2001/REC-SVG-20010904/DTD/svg10.dtd">
<svg version="1.0"
  xmlns="http://www.w3.org/2000/svg" width="3712.000000pt" height="647.000000pt" viewBox="0 0 3712.000000 647.000000" preserveAspectRatio="xMidYMid meet">

  <g transform="translate(0.000000,647.000000) scale(0.100000,-0.100000)" fill="currentColor" stroke="none">
    <path d="M7664 6384 c-32 -46 -81 -115 -108 -152 -26 -37 -76 -107 -110 -156
-63 -92 -84 -121 -176 -251 -30 -42 -68 -96 -85 -120 -16 -23 -45 -63 -63 -89
-29 -40 -32 -49 -20 -63 12 -16 99 -83 217 -169 l56 -41 45 40 c25 22 77 70
115 106 39 37 99 93 135 125 77 70 305 284 364 341 22 22 67 63 99 92 l59 51
-104 81 c-56 45 -125 98 -152 119 -27 20 -65 51 -85 68 -20 16 -57 47 -82 67
l-45 37 -60 -86z"/>
    <path d="M1167 5833 c-4 -3 -7 -42 -7 -85 l0 -78 2840 0 2841 0 -3 83 -3 82
-2831 3 c-1557 1 -2834 -1 -2837 -5z"/>
    <path d="M8330 5755 l0 -85 13675 0 13675 0 0 85 0 85 -13675 0 -13675 0 0
-85z"/>
    <path d="M4843 4993 c-11 -27 -36 -79 -53 -118 -18 -38 -47 -104 -65 -145 -44
-102 -185 -419 -224 -503 -17 -37 -31 -70 -31 -72 0 -3 -18 -42 -39 -87 -22
-46 -65 -141 -96 -213 -32 -71 -73 -163 -91 -203 -19 -41 -34 -76 -34 -79 0
-3 -16 -40 -36 -82 -20 -42 -44 -96 -54 -121 -10 -25 -32 -73 -49 -106 -17
-34 -31 -64 -31 -68 0 -4 -23 -57 -51 -119 -28 -61 -66 -146 -84 -187 -18 -41
-54 -120 -78 -175 -65 -145 -133 -297 -179 -400 -57 -128 -164 -367 -243 -545
-19 -41 -54 -120 -78 -175 -25 -55 -66 -146 -91 -202 -25 -56 -46 -104 -46
-107 0 -2 -17 -42 -39 -88 -51 -109 -91 -199 -91 -204 0 -2 194 -4 431 -4
l430 0 25 58 c14 31 37 82 51 112 14 30 40 89 58 130 19 41 41 89 49 105 9 17
16 33 16 37 0 3 16 40 36 82 l35 76 684 0 683 0 13 -38 c6 -20 23 -59 37 -87
14 -27 37 -79 52 -115 47 -111 100 -231 130 -297 l29 -63 431 0 c236 0 430 3
430 7 0 4 -23 57 -51 118 -117 253 -129 281 -129 287 0 4 -18 44 -39 90 -22
46 -60 130 -86 188 -46 103 -79 178 -168 375 -25 55 -62 138 -82 185 -21 47
-60 135 -87 195 -28 61 -68 151 -90 200 -22 50 -60 133 -83 185 -24 52 -62
138 -85 190 -23 52 -64 145 -92 205 -84 186 -142 317 -248 555 -23 52 -62 139
-86 193 -24 53 -65 143 -90 200 -105 236 -128 286 -161 357 -20 41 -41 91 -48
110 -8 19 -44 100 -80 180 -37 80 -75 164 -84 188 -9 23 -18 42 -21 42 -3 0
-15 -21 -27 -47z m83 -1990 c24 -53 47 -107 50 -118 4 -11 15 -40 27 -65 27
-61 101 -237 141 -335 18 -44 43 -99 54 -122 12 -23 22 -47 22 -53 0 -7 -113
-10 -346 -10 l-345 0 6 23 c7 23 84 204 135 317 39 87 140 327 140 334 0 12
63 136 67 132 3 -2 25 -49 49 -103z"/>
    <path d="M21927 4966 c-20 -43 -37 -81 -37 -84 0 -3 -23 -56 -51 -117 -52
-113 -85 -186 -162 -360 -25 -55 -66 -146 -91 -202 -25 -56 -46 -104 -46 -107
0 -2 -17 -42 -39 -88 -65 -140 -131 -287 -131 -292 0 -3 -18 -43 -39 -88 -22
-46 -64 -139 -94 -208 -30 -69 -69 -155 -86 -192 -17 -36 -31 -69 -31 -72 0
-3 -14 -34 -31 -68 -17 -35 -44 -97 -61 -138 -16 -41 -33 -80 -38 -85 -5 -6
-17 -33 -28 -60 -11 -28 -38 -90 -61 -138 -23 -49 -41 -90 -41 -93 0 -2 -18
-43 -40 -90 -22 -47 -40 -88 -40 -91 0 -2 -22 -52 -49 -111 -64 -140 -189
-420 -260 -582 -23 -52 -59 -133 -81 -180 -21 -47 -56 -125 -78 -175 -22 -49
-62 -139 -90 -200 -27 -60 -53 -120 -57 -132 l-6 -23 431 0 c401 0 431 1 437
18 3 9 25 60 48 112 38 85 68 152 178 397 l32 72 681 1 681 0 42 -89 c22 -49
41 -92 41 -95 0 -3 16 -41 36 -83 20 -43 49 -107 64 -143 15 -36 40 -93 56
-128 l29 -62 427 0 c236 0 428 3 428 8 0 15 -39 109 -74 179 -20 39 -36 75
-36 79 0 7 -56 132 -124 279 -19 39 -36 80 -40 92 -4 12 -25 58 -47 103 -21
44 -39 83 -39 86 0 2 -21 51 -46 107 -25 56 -66 147 -91 202 -25 55 -60 133
-79 173 -19 39 -34 75 -34 78 0 3 -20 48 -45 101 -25 52 -45 97 -45 99 0 6
-78 179 -131 292 -21 45 -39 85 -39 88 0 4 -32 77 -115 259 -33 72 -95 211
-142 320 -19 44 -38 84 -42 90 -5 5 -20 39 -34 75 -14 36 -42 98 -61 137 -20
40 -36 75 -36 79 0 3 -14 36 -31 72 -17 37 -56 123 -86 192 -30 69 -71 161
-92 205 -21 44 -42 91 -46 104 -4 14 -24 59 -45 100 -21 42 -41 86 -45 99 -4
13 -22 54 -40 90 -18 37 -35 77 -39 89 -4 12 -24 57 -45 99 l-37 77 -37 -77z
m93 -1958 c24 -57 60 -142 82 -189 21 -47 38 -90 38 -94 0 -5 15 -43 34 -85
61 -131 136 -313 136 -327 0 -10 -67 -13 -340 -13 -383 0 -357 -7 -316 82 13
29 52 118 85 198 34 80 71 165 83 190 18 40 50 114 121 287 12 29 25 53 28 53
3 0 25 -46 49 -102z"/>
    <path d="M30010 3012 l0 -2032 395 0 395 0 2 1101 3 1101 135 -128 c74 -70
216 -205 315 -298 98 -94 200 -191 225 -216 25 -25 124 -119 219 -210 95 -91
206 -196 246 -235 40 -38 137 -131 216 -205 79 -74 162 -154 184 -176 22 -23
175 -169 340 -324 165 -156 312 -295 326 -309 69 -70 177 -171 183 -171 3 0 5
912 4 2028 l-3 2027 -394 3 c-232 1 -397 -2 -400 -7 -3 -5 -6 -488 -5 -1073 0
-584 -2 -1073 -5 -1085 -6 -21 -13 -16 -88 55 -126 117 -352 332 -398 377 -22
22 -121 117 -219 210 -236 226 -225 215 -431 410 -98 94 -193 184 -209 201
-17 17 -166 158 -331 314 -165 155 -316 299 -335 319 -20 20 -98 95 -175 166
-76 72 -151 143 -167 160 l-28 29 0 -2032z"/>
    <path d="M35270 4998 c-12 -24 -35 -72 -50 -108 -37 -87 -184 -419 -221 -498
-16 -34 -29 -64 -29 -67 0 -2 -17 -42 -39 -87 -21 -46 -64 -141 -96 -213 -115
-261 -137 -311 -171 -383 -19 -40 -34 -75 -34 -78 0 -2 -23 -55 -51 -117 -51
-114 -95 -211 -176 -392 -24 -55 -59 -134 -78 -175 -43 -94 -120 -266 -175
-390 -59 -132 -164 -368 -245 -550 -19 -41 -54 -120 -78 -175 -25 -55 -66
-146 -91 -202 -25 -56 -46 -104 -46 -106 0 -3 -20 -48 -45 -100 -25 -53 -45
-99 -45 -102 0 -3 -12 -29 -26 -58 -30 -61 -84 -189 -84 -199 0 -5 193 -8 429
-8 l429 0 12 33 c8 17 32 73 55 122 23 50 77 170 120 268 l79 177 681 0 680 0
47 -103 c72 -159 98 -216 133 -297 17 -41 45 -103 60 -138 l28 -62 429 0 c286
0 428 3 428 10 0 6 -23 61 -51 123 -66 146 -121 268 -252 562 -25 55 -63 141
-85 190 -22 50 -81 182 -132 295 -50 113 -109 244 -130 292 -22 49 -58 127
-80 176 -21 48 -80 179 -130 292 -120 267 -163 365 -215 480 -24 52 -62 138
-85 190 -23 52 -61 138 -85 190 -23 52 -64 142 -89 200 -26 58 -62 139 -81
180 -19 41 -54 120 -78 175 -62 139 -129 288 -182 403 -25 54 -45 101 -45 104
0 3 -20 47 -44 97 l-43 92 -23 -43z m56 -1941 c12 -28 43 -101 69 -162 120
-280 139 -325 166 -392 15 -39 39 -94 54 -122 44 -87 69 -81 -315 -81 -287 0
-340 2 -340 14 0 14 69 180 136 326 19 42 34 80 34 84 0 5 19 52 43 105 24 53
61 138 82 189 22 50 42 92 45 92 3 0 15 -24 26 -53z"/>
    <path d="M0 2975 l0 -1995 405 0 405 0 2 767 3 767 52 -79 c29 -44 61 -93 73
-110 11 -16 47 -70 79 -120 56 -86 96 -149 336 -515 59 -91 133 -203 163 -250
174 -266 235 -360 267 -407 l36 -53 485 0 c266 0 484 2 484 5 0 7 -17 35 -76
125 -23 36 -71 110 -106 165 -36 55 -100 154 -143 220 -42 66 -87 136 -100
155 -12 19 -60 94 -107 165 -47 72 -112 173 -146 225 -33 52 -70 109 -82 125
-11 17 -45 68 -75 115 -62 97 -66 87 53 131 261 98 459 299 608 617 74 159
104 321 104 569 0 149 -19 326 -45 428 -95 364 -484 750 -875 869 -253 77
-156 70 -1022 73 l-778 4 0 -1996z m1380 1191 c189 -32 300 -87 396 -198 138
-159 159 -419 53 -630 -37 -73 -169 -206 -234 -237 -101 -47 -141 -51 -476
-49 l-314 3 -3 550 c-1 303 0 556 3 563 7 18 462 17 575 -2z"/>
    <path d="M6980 2975 l0 -1995 400 0 400 0 0 1995 0 1995 -400 0 -400 0 0
-1995z"/>
    <path d="M8130 4570 l0 -400 760 0 c418 0 760 -2 760 -4 0 -3 -44 -96 -99
-208 -54 -112 -122 -252 -151 -313 -93 -195 -156 -326 -235 -490 -43 -88 -133
-279 -202 -425 -69 -145 -133 -280 -143 -300 -10 -19 -39 -78 -64 -130 -24
-52 -74 -156 -109 -230 -36 -74 -90 -189 -121 -255 -32 -66 -79 -165 -106
-220 -97 -201 -290 -607 -290 -611 0 -2 628 -4 1395 -4 l1395 0 0 400 0 400
-760 0 c-418 0 -760 3 -760 6 0 4 15 36 34 73 42 80 109 221 311 646 31 66 78
165 105 220 62 129 160 333 220 460 46 97 69 146 261 544 49 101 89 185 89
187 0 2 38 81 84 176 110 229 181 375 256 533 34 72 84 176 111 231 27 56 49
104 49 108 0 3 -628 6 -1395 6 l-1395 0 0 -400z"/>
    <path d="M24080 2975 l0 -1995 400 0 400 0 2 773 3 772 46 -70 c25 -38 90
-137 144 -220 54 -82 144 -220 200 -305 56 -85 137 -209 180 -275 104 -160
230 -352 330 -505 45 -69 88 -135 94 -148 l12 -22 489 0 c270 0 490 2 490 5 0
3 -17 31 -37 63 -67 104 -206 315 -285 435 -43 65 -78 120 -78 122 0 3 -57 92
-126 197 -119 181 -146 223 -262 403 -25 39 -59 89 -75 113 -16 24 -25 47 -21
51 5 5 52 25 104 45 219 87 335 183 484 400 112 163 190 363 215 549 14 100
14 358 1 465 -18 137 -56 270 -111 379 -48 94 -128 217 -167 254 -10 8 -31 31
-47 50 -56 63 -199 185 -270 230 -108 69 -239 128 -365 166 -216 63 -208 63
-1016 63 l-734 0 0 -1995z m1473 1172 c127 -34 188 -67 267 -147 125 -126 167
-266 142 -478 -16 -138 -58 -217 -173 -327 -67 -63 -103 -89 -155 -111 l-69
-29 -342 -3 -341 -3 -5 28 c-4 23 -3 1010 2 1081 l1 24 288 -4 c271 -4 293 -6
385 -31z"/>
    <path d="M27240 2975 l0 -1995 1195 0 1195 0 0 400 0 400 -795 0 -795 0 0 395
0 395 600 0 600 0 0 400 0 400 -597 2 -598 3 -3 398 -2 397 795 0 795 0 0 400
0 400 -1195 0 -1195 0 0 -1995z"/>
    <path d="M15941 4562 c-8 -3 -11 -471 -11 -1593 l0 -1589 955 0 955 0 0 320 0
320 -635 0 -635 0 0 314 c0 242 3 315 13 318 6 2 220 4 475 3 l462 -1 0 318 0
318 -475 0 -475 0 0 320 0 320 635 0 635 0 0 318 0 317 -944 0 c-520 0 -949
-1 -955 -3z"/>
    <path d="M13320 2970 l0 -1590 428 0 c422 0 631 12 737 40 378 103 622 246
845 498 129 146 228 333 294 557 55 188 61 236 61 495 0 259 -6 307 -61 495
-159 541 -541 902 -1114 1050 -141 37 -279 45 -742 45 l-448 0 0 -1590z m1045
925 c332 -81 568 -310 650 -630 52 -202 52 -384 -1 -589 -61 -240 -213 -433
-429 -545 -75 -39 -101 -48 -245 -87 -31 -8 -126 -17 -217 -21 l-163 -6 0 958
0 958 148 -5 c112 -5 173 -12 257 -33z"/>
    <path d="M1750 100 l0 -80 16970 0 16970 0 0 80 0 80 -16970 0 -16970 0 0 -80z"/>
  </g>
</svg>
